<svg width="600" height="600" viewBox="0 0 600 600" fill="none" xmlns="http://www.w3.org/2000/svg">
<path d="M490.363 369.288C490.882 385.157 464.413 410.054 424.45 430.027C387.341 448.632 338.555 462.859 288.471 462.859C183.373 462.859 110.713 411.422 110.194 379.685V216.345H490.363C490.104 216.345 490.363 367.92 490.363 369.288Z" fill="#00D395"/>
<path d="M576 212.789L290.547 342.749V324.144L576 195.278V212.789Z" fill="#3CE5B1"/>
<path d="M575.998 195.278L420.297 265.594L290.546 324.144L33.6396 233.309L23 228.658L316.496 108L575.998 195.278Z" fill="#00D395"/>
<path d="M23 245.346L290.547 342.748V324.143L23 228.657V245.346Z" fill="#04B17C"/>
<path d="M323.504 207.864C323.504 209.779 322.466 211.694 320.649 213.062C317.535 215.798 311.826 217.44 305.339 217.44C295.218 217.44 287.173 213.062 287.173 207.864C287.173 204.033 291.585 200.75 297.813 199.108C300.149 198.561 302.744 198.288 305.339 198.288C315.459 198.288 323.504 202.665 323.504 207.864Z" fill="#04B17C"/>
<path d="M143.929 356.702H138.22V310.19C138.22 290.764 149.379 273.254 166.246 265.593L304.301 204.854L306.637 210.6L168.582 271.339C153.79 277.905 143.929 293.227 143.929 310.19V356.702Z" fill="#3CE5B1"/>
<path d="M153.011 419.903C153.011 452.461 147.562 479 140.815 479C134.068 479 128.618 452.735 128.618 419.903C128.618 387.344 134.068 360.805 140.815 360.805C142.631 360.805 144.448 362.72 146.005 366.551C150.416 376.127 153.011 396.373 153.011 419.903Z" fill="#3CE5B1"/>
<path d="M323.504 207.864C323.504 209.779 322.466 211.694 320.649 213.062C314.421 200.75 303.262 199.108 298.072 199.108C300.408 198.561 303.003 198.288 305.598 198.288C315.459 198.288 323.504 202.665 323.504 207.864Z" fill="#04B17C"/>
<path d="M153.011 362.995C153.011 367.92 150.416 372.024 146.524 374.213C144.707 375.033 142.891 375.854 140.815 375.854C134.067 375.854 128.618 370.109 128.618 362.995C128.618 358.344 130.953 354.24 134.586 352.051C136.403 350.956 138.479 350.409 140.555 350.409C147.821 350.136 153.011 355.881 153.011 362.995Z" fill="#3CE5B1"/>
</svg>
